<?xml version="1.0" encoding="UTF-8"?>
<svg id="Capa_2" data-name="Capa 2" xmlns="http://www.w3.org/2000/svg" xmlns:xlink="http://www.w3.org/1999/xlink" viewBox="0 0 407.37 360">
  <defs>
    <style>
      .cls-1 {
        clip-path: url(#clippath-2);
      }

      .cls-2 {
        fill: #a1b3e6;
      }

      .cls-2, .cls-3, .cls-4 {
        stroke-width: 0px;
      }

      .cls-5 {
        stroke: #fff;
      }

      .cls-5, .cls-3, .cls-6 {
        fill: none;
      }

      .cls-5, .cls-6 {
        stroke-miterlimit: 10;
        stroke-width: 3px;
      }

      .cls-7 {
        clip-path: url(#clippath-1);
      }

      .cls-8 {
        clip-path: url(#clippath-4);
      }

      .cls-9 {
        clip-path: url(#clippath);
      }

      .cls-10 {
        clip-path: url(#clippath-3);
      }

      .cls-4 {
        fill: #fff;
      }

      .cls-6 {
        stroke: #a1b3e6;
      }
    </style>
    <clipPath id="clippath">
      <rect class="cls-3" x="66.32" width="255.79" height="360"/>
    </clipPath>
    <clipPath id="clippath-1">
      <path class="cls-3" d="M326.84,52.11c0,28.78-23.33,52.11-52.11,52.11h-22.63c28.78,0,52.11-23.33,52.11-52.11S280.88,0,252.11,0h22.63c28.78,0,52.11,23.33,52.11,52.11Z"/>
    </clipPath>
    <clipPath id="clippath-2">
      <circle class="cls-3" cx="303.16" cy="274.74" r="47.37"/>
    </clipPath>
    <clipPath id="clippath-3">
      <path class="cls-3" d="M66.32,284.21h56.84v47.37c0,15.69-12.73,28.42-28.42,28.42-7.85,0-14.95-3.18-20.09-8.33-5.15-5.15-8.33-12.24-8.33-20.09v-47.37Z"/>
    </clipPath>
    <clipPath id="clippath-4">
      <path class="cls-3" d="M165.79,208.42h-64.99c-19.04,0-34.48-15.44-34.48-34.48v-69.73h99.47c-28.78,0-52.11,23.33-52.11,52.11s23.33,52.11,52.11,52.11Z"/>
    </clipPath>
  </defs>
  <g id="card">
    <g class="cls-9">
      <path class="cls-4" d="M104.21,103.99c1.56.15,3.14.22,4.74.22h-4.74v-.22Z"/>
      <path class="cls-4" d="M104.21,0h4.74c-1.6,0-3.18.07-4.74.22v-.22Z"/>
      <path class="cls-2" d="M304.21,52.11c0,28.78-23.33,52.11-52.11,52.11H108.95c28.78,0,52.11-23.33,52.11-52.11S137.73,0,108.95,0h143.16c28.78,0,52.11,23.33,52.11,52.11Z"/>
      <path class="cls-4" d="M208.42,104.21v.22c-1.56-.15-3.14-.22-4.74-.22h4.74Z"/>
      <path class="cls-4" d="M255.79,274.74c0,26.16,21.21,47.37,47.37,47.37,6.52,0,12.73-1.32,18.39-3.71-3.58,23.56-23.92,41.6-48.46,41.6h-55.19v-106.18c7.03-1.98,13.46-5.41,18.95-9.95,11.58-9.56,18.95-24.01,18.95-40.19s-7.37-30.63-18.95-40.19c-5.48-4.54-11.92-7.97-18.95-9.95v-1.97h52.11c28.78,0,52.11,23.33,52.11,52.11v27.63c-5.81-2.54-12.21-3.95-18.95-3.95-26.16,0-47.37,21.21-47.37,47.37Z"/>
      <circle class="cls-2" cx="85.26" cy="18.95" r="18.95"/>
      <path class="cls-2" d="M208.42,312.63v47.37h-47.37c26.16,0,47.37-21.21,47.37-47.37Z"/>
      <g class="cls-7">
        <g>
          <g>
            <line class="cls-5" x1="246.32" y1="9.47" x2="382.59" y2="9.47"/>
            <line class="cls-5" x1="246.32" y1="18.95" x2="394.98" y2="18.95"/>
            <line class="cls-5" x1="246.32" y1="28.42" x2="382.59" y2="28.42"/>
            <line class="cls-5" x1="246.32" y1="37.89" x2="407.37" y2="37.89"/>
            <line class="cls-5" x1="246.32" y1="47.37" x2="394.98" y2="47.37"/>
            <line class="cls-5" x1="246.32" y1="56.84" x2="370.2" y2="56.84"/>
            <line class="cls-5" x1="246.32" y1="66.32" x2="357.81" y2="66.32"/>
            <line class="cls-5" x1="246.32" y1="75.79" x2="407.37" y2="75.79"/>
          </g>
          <g>
            <line class="cls-5" x1="246.32" y1="85.26" x2="394.98" y2="85.26"/>
            <line class="cls-5" x1="246.32" y1="94.74" x2="382.59" y2="94.74"/>
          </g>
        </g>
      </g>
      <g class="cls-1">
        <g>
          <line class="cls-6" x1="246.32" y1="236.84" x2="394.98" y2="236.84"/>
          <line class="cls-6" x1="246.32" y1="246.32" x2="382.59" y2="246.32"/>
          <line class="cls-6" x1="246.32" y1="255.79" x2="394.98" y2="255.79"/>
          <line class="cls-6" x1="246.32" y1="265.26" x2="382.59" y2="265.26"/>
          <line class="cls-6" x1="246.32" y1="274.74" x2="407.37" y2="274.74"/>
          <line class="cls-6" x1="246.32" y1="284.21" x2="394.98" y2="284.21"/>
          <line class="cls-6" x1="246.32" y1="293.68" x2="370.2" y2="293.68"/>
          <line class="cls-6" x1="246.32" y1="303.16" x2="357.81" y2="303.16"/>
          <line class="cls-6" x1="246.32" y1="312.63" x2="407.37" y2="312.63"/>
        </g>
      </g>
      <g class="cls-10">
        <line class="cls-5" y1="312.63" x2="148.66" y2="312.63"/>
        <line class="cls-6" y1="322.11" x2="136.28" y2="322.11"/>
        <line class="cls-6" y1="331.58" x2="148.66" y2="331.58"/>
        <line class="cls-6" y1="341.05" x2="136.28" y2="341.05"/>
        <line class="cls-6" y1="350.53" x2="161.05" y2="350.53"/>
      </g>
      <path class="cls-4" d="M66.32,265.26h56.84v47.37c0,15.69-12.73,28.42-28.42,28.42-7.85,0-14.95-3.18-20.09-8.33-5.15-5.15-8.33-12.24-8.33-20.09v-47.37Z"/>
      <g class="cls-8">
        <g>
          <line class="cls-6" x1="161.05" y1="189.47" x2="12.39" y2="189.47"/>
          <line class="cls-6" x1="161.05" y1="198.95" x2="12.39" y2="198.95"/>
          <line class="cls-6" x1="161.05" y1="180" x2="24.78" y2="180"/>
          <line class="cls-6" x1="161.05" y1="170.53" x2="12.39" y2="170.53"/>
          <line class="cls-6" x1="161.05" y1="161.05" x2="24.78" y2="161.05"/>
          <line class="cls-6" x1="161.05" y1="151.58" y2="151.58"/>
          <line class="cls-6" x1="161.05" y1="142.11" x2="12.39" y2="142.11"/>
          <line class="cls-6" x1="161.05" y1="132.63" x2="37.17" y2="132.63"/>
          <line class="cls-6" x1="161.05" y1="123.16" x2="49.55" y2="123.16"/>
          <line class="cls-6" x1="161.05" y1="113.68" y2="113.68"/>
        </g>
      </g>
      <path class="cls-4" d="M208.42,312.63h-47.37v-47.37c26.16,0,47.37,21.21,47.37,47.37Z"/>
      <path class="cls-2" d="M189.47,265.26h-113.68c0-19.41,9.74-36.56,24.59-46.81,9.16-6.33,20.27-10.03,32.25-10.03,31.39,0,56.84,25.45,56.84,56.84Z"/>
      <path class="cls-2" d="M167.37,208.42v-94.74c26.16,0,47.37,21.21,47.37,47.37s-21.21,47.37-47.37,47.37Z"/>
      <path class="cls-4" d="M137.37,208.42h-64.99c-19.04,0-34.48-15.44-34.48-34.48v-69.73h99.47c-28.78,0-52.11,23.33-52.11,52.11s23.33,52.11,52.11,52.11Z"/>
    </g>
  </g>
</svg>